<svg width="22" height="22" viewBox="0 0 22 22" fill="none" xmlns="http://www.w3.org/2000/svg">
<path d="M18.6122 4.41454C18.1724 3.9661 17.6502 3.61036 17.0754 3.36765C16.5007 3.12494 15.8846 3.00002 15.2625 3.00002C14.6403 3.00002 14.0243 3.12494 13.4495 3.36765C12.8748 3.61036 12.3526 3.9661 11.9127 4.41454L11 5.34478L10.0872 4.41454C9.19876 3.50914 7.99383 3.00049 6.73743 3.00049C5.48103 3.00049 4.2761 3.50914 3.38769 4.41454C2.49928 5.31994 2.00018 6.54792 2.00018 7.82835C2.00018 9.10878 2.49928 10.3368 3.38769 11.2422L4.30047 12.1724L11 19L17.6994 12.1724L18.6122 11.2422C19.0522 10.7939 19.4013 10.2617 19.6395 9.67598C19.8776 9.09023 20.0002 8.4624 20.0002 7.82835C20.0002 7.1943 19.8776 6.56647 19.6395 5.98072C19.4013 5.39497 19.0522 4.86277 18.6122 4.41454Z" fill="#EB5757" stroke="#EB5757" stroke-width="1.5" stroke-linecap="round" stroke-linejoin="round"/>
</svg>
